<svg xmlns="http://www.w3.org/2000/svg" viewBox="0 0 64 64">
  <defs>
    <linearGradient id="g" x1="0" x2="1" y1="0" y2="1">
      <stop offset="0%" stop-color="#7c3aed"/>
      <stop offset="100%" stop-color="#22d3ee"/>
    </linearGradient>
  </defs>
  <rect width="64" height="64" rx="14" fill="#0b1020"/>
  <g fill="url(#g)">
    <path d="M32 10l3.2 8.8L44 22l-8.8 3.2L32 34l-3.2-8.8L20 22l8.8-3.2L32 10z"/>
    <path d="M50 34l1.6 4.4L56 40l-4.4 1.6L50 46l-1.6-4.4L44 40l4.4-1.6L50 34z"/>
    <path d="M16 36l2.4 6.6L26 46l-6.6 2.4L16 56l-2.4-6.6L6 46l6.6-2.4L16 36z"/>
  </g>
</svg>

